<svg xmlns="http://www.w3.org/2000/svg" width="30" height="30" viewBox="0 0 30 30">
<g>
</g>
	<path d="M14.817 1.201c-7.621 0.102-13.717 6.363-13.615 13.985 0.102 7.617 6.363 13.715 13.985 13.613 7.619-0.102 13.716-6.363 13.613-13.985-0.1-7.619-6.361-13.715-13.981-13.613zM14.776 23.4h-0.076c-1.173-0.035-2.001-0.9-1.968-2.056 0.033-1.135 0.88-1.962 2.016-1.962l0.069 0.001c1.206 0.036 2.025 0.893 1.989 2.082-0.033 1.139-0.869 1.935-2.030 1.935zM19.713 13.602c-0.277 0.391-0.884 0.879-1.649 1.475l-0.843 0.582c-0.462 0.36-0.741 0.697-0.845 1.029-0.084 0.264-0.123 0.331-0.13 0.864l-0.001 0.136h-3.215l0.009-0.273c0.039-1.119 0.067-1.776 0.531-2.32 0.727-0.854 2.332-1.887 2.4-1.93 0.23-0.174 0.423-0.37 0.569-0.58 0.337-0.465 0.486-0.832 0.486-1.191 0-0.5-0.149-0.961-0.441-1.373-0.282-0.397-0.818-0.599-1.591-0.599-0.768 0-1.293 0.245-1.608 0.744-0.325 0.515-0.487 1.053-0.487 1.605v0.138h-3.315l0.006-0.144c0.085-2.031 0.81-3.492 2.154-4.345 0.843-0.545 1.893-0.819 3.117-0.819 1.604 0 2.96 0.39 4.025 1.158 1.080 0.779 1.627 1.945 1.627 3.466 0 0.852-0.269 1.651-0.798 2.377z" fill="#000000" />
</svg>
